<?xml version="1.0" standalone="no"?>
<!DOCTYPE svg PUBLIC "-//W3C//DTD SVG 20010904//EN"
 "http://www.w3.org/TR/2001/REC-SVG-20010904/DTD/svg10.dtd">
<svg version="1.0" xmlns="http://www.w3.org/2000/svg"
 width="700.000000pt" height="700.000000pt" viewBox="0 0 700.000000 700.000000"
 preserveAspectRatio="xMidYMid meet">
<metadata>
Created by potrace 1.11, written by Peter Selinger 2001-2013
</metadata>
<g transform="translate(0.000000,700.000000) scale(0.100000,-0.100000)"
fill="#000000" stroke="none">
<path d="M3600 5598 c-120 -234 -273 -387 -515 -518 -33 -18 -82 -45 -110 -60
-27 -16 -138 -69 -245 -118 -107 -49 -229 -106 -271 -125 -42 -20 -125 -58
-185 -85 -60 -27 -129 -58 -154 -70 -152 -69 -810 -368 -875 -397 -33 -14 -80
-36 -105 -47 -55 -25 -110 -50 -260 -118 -63 -29 -140 -63 -170 -77 -30 -14
-73 -33 -95 -43 -22 -10 -71 -32 -108 -50 l-69 -32 89 -42 c48 -23 140 -67
203 -96 63 -30 122 -59 131 -65 14 -8 -25 -30 -202 -111 l-219 -101 163 -77
c89 -42 189 -89 222 -105 l60 -28 -85 -39 c-47 -22 -144 -67 -217 -99 -73 -33
-132 -62 -133 -65 0 -5 69 -39 305 -150 l130 -61 -65 -30 c-159 -73 -209 -97
-289 -135 l-86 -42 85 -40 c47 -22 156 -74 244 -116 87 -42 159 -76 161 -76 1
0 85 -40 186 -89 101 -48 213 -102 249 -119 36 -16 124 -58 195 -92 72 -34
166 -79 210 -100 85 -40 187 -88 434 -206 84 -41 155 -74 156 -74 2 0 83 -39
181 -86 229 -110 284 -136 477 -227 l158 -74 272 124 c340 155 317 144 412
188 44 21 107 50 140 65 33 15 91 42 129 59 38 18 162 74 275 126 113 51 244
111 291 133 47 22 108 50 135 62 136 62 649 296 715 327 41 19 120 55 175 80
55 25 141 64 190 87 50 23 213 98 363 166 149 69 272 128 272 131 0 4 -17 14
-37 22 -21 8 -94 42 -163 75 -69 32 -143 67 -165 77 -73 33 -73 35 32 82 54
25 127 59 163 75 36 17 89 42 119 55 30 13 50 27 45 32 -5 4 -63 32 -129 63
-66 31 -160 75 -209 98 -48 23 -84 45 -80 49 5 4 102 50 217 102 114 52 207
96 207 99 -1 3 -26 17 -58 32 -263 124 -375 179 -371 182 2 2 101 48 219 101
118 54 216 99 218 100 1 1 -161 75 -360 165 -200 90 -421 191 -493 225 -71 34
-173 82 -225 106 -161 74 -618 304 -755 380 -71 39 -159 87 -195 107 -36 19
-82 46 -102 59 -21 13 -39 23 -41 23 -2 0 -44 25 -93 55 -49 30 -105 63 -124
74 -77 42 -324 217 -419 296 -55 47 -102 85 -104 85 -3 0 -24 -37 -47 -82z
m395 -356 c240 -157 625 -372 1005 -563 234 -117 567 -279 575 -279 1 0 45
-20 96 -44 52 -24 114 -53 139 -64 141 -64 349 -161 375 -174 l29 -16 -34 -15
c-19 -8 -69 -31 -110 -50 -91 -42 -529 -243 -585 -267 -22 -10 -76 -35 -120
-55 -182 -85 -608 -280 -841 -385 -84 -38 -205 -94 -269 -124 -65 -31 -119
-56 -121 -56 -1 0 -42 -18 -91 -41 -48 -23 -126 -58 -173 -79 -47 -21 -119
-54 -160 -73 -41 -19 -111 -51 -155 -72 -44 -20 -118 -54 -165 -75 -47 -21
-112 -51 -146 -67 l-61 -30 -69 32 c-113 53 -232 109 -354 168 -63 30 -153 73
-200 95 -47 22 -134 63 -195 92 -213 102 -321 153 -400 190 -74 35 -124 59
-402 191 -57 27 -149 71 -205 98 -170 80 -266 126 -403 191 -71 34 -141 66
-155 72 l-25 10 27 14 c15 8 125 59 245 113 120 54 243 110 273 124 30 14 100
45 155 70 55 25 129 59 165 75 36 16 209 95 385 175 176 80 356 162 400 182
44 21 123 57 175 80 675 305 858 430 1048 712 l42 63 103 -77 c56 -41 147
-105 202 -141z m2096 -1486 l134 -63 -50 -23 c-28 -12 -79 -36 -115 -53 -36
-16 -256 -117 -490 -224 -234 -108 -447 -206 -475 -218 -27 -13 -158 -73 -290
-133 -132 -60 -271 -124 -310 -142 -38 -18 -144 -66 -235 -107 -91 -42 -194
-89 -230 -106 -36 -16 -92 -42 -125 -57 -126 -58 -182 -83 -233 -106 -118 -54
-170 -78 -232 -107 -36 -16 -108 -50 -160 -74 l-94 -44 -57 26 c-31 14 -132
61 -225 106 -93 45 -196 94 -229 109 -33 15 -109 51 -170 80 -60 29 -148 70
-195 92 -47 22 -159 76 -249 119 -90 44 -165 79 -166 79 -2 0 -74 34 -161 76
-88 42 -195 93 -239 114 -153 72 -246 116 -600 285 -113 54 -119 58 -95 68 14
6 76 35 139 64 82 37 118 49 130 42 19 -10 352 -169 356 -169 1 0 78 -36 171
-81 93 -45 201 -96 239 -114 39 -18 252 -119 475 -225 223 -106 441 -209 485
-230 44 -21 147 -70 229 -109 126 -60 154 -70 175 -62 14 5 217 96 451 204
234 107 448 205 475 217 28 12 84 38 125 57 41 20 122 57 180 83 89 40 215 98
665 305 58 27 112 51 240 110 33 15 168 77 300 138 291 133 297 136 311 137 6
0 72 -29 145 -64z m-60 -387 c46 -23 108 -52 138 -65 30 -13 52 -26 50 -29 -3
-2 -50 -24 -105 -49 -54 -24 -139 -63 -189 -86 -49 -23 -182 -84 -295 -135
-113 -51 -243 -111 -290 -133 -47 -22 -184 -85 -306 -140 -121 -55 -258 -118
-305 -140 -46 -22 -106 -49 -134 -62 -50 -22 -119 -54 -956 -438 l-457 -209
-132 64 c-73 34 -134 63 -135 63 -2 0 -79 37 -171 81 -93 45 -205 98 -249 119
-44 21 -129 61 -190 90 -60 29 -146 69 -190 90 -44 21 -143 68 -220 105 -77
37 -167 80 -200 95 -33 15 -114 54 -180 85 -66 32 -165 79 -220 105 -233 109
-355 167 -435 207 l-85 42 35 14 c19 9 79 36 134 61 54 25 102 46 106 46 8 0
62 -25 410 -190 107 -51 236 -112 285 -135 50 -24 142 -67 205 -98 227 -108
736 -350 805 -382 39 -18 133 -63 210 -100 77 -37 158 -75 180 -85 45 -19 17
-28 238 74 42 20 103 48 135 63 31 14 116 53 187 86 72 32 153 69 180 82 86
39 164 75 345 158 96 44 204 93 240 109 36 17 94 44 130 60 36 17 133 61 215
99 103 46 1095 502 1131 519 0 0 39 -19 85 -41z m69 -448 c66 -33 118 -61 113
-64 -4 -3 -78 -36 -163 -75 -85 -39 -189 -86 -230 -105 -41 -19 -149 -68 -240
-110 -91 -41 -199 -91 -240 -110 -41 -19 -149 -68 -240 -110 -91 -41 -199 -91
-240 -110 -41 -19 -176 -81 -300 -137 -124 -56 -261 -119 -305 -140 -44 -20
-303 -139 -577 -264 l-496 -227 -127 60 c-70 34 -129 61 -130 61 -2 0 -87 40
-190 90 -103 50 -188 90 -190 90 -1 0 -96 45 -210 100 -113 55 -208 100 -209
100 -2 0 -68 31 -147 69 -79 38 -283 135 -454 216 -170 81 -350 167 -400 190
-49 24 -148 71 -220 105 l-130 61 40 19 c185 85 222 102 235 102 8 1 74 -27
145 -62 72 -34 157 -75 190 -90 33 -15 161 -76 285 -135 340 -162 428 -204
515 -245 44 -21 134 -64 200 -95 190 -91 326 -155 385 -182 30 -14 128 -61
217 -104 90 -43 171 -80 182 -84 17 -5 104 32 451 193 91 42 404 185 530 242
58 26 139 63 180 83 41 19 152 70 245 112 191 87 514 235 590 270 137 63 205
95 260 120 33 15 143 65 245 112 102 46 203 93 225 103 22 11 50 17 62 15 11
-3 76 -31 143 -64z"/>
<path d="M4145 4571 c-104 -48 -230 -106 -278 -129 -49 -23 -90 -42 -92 -42
-2 0 -56 -25 -121 -56 -140 -66 -192 -90 -374 -174 -142 -65 -180 -83 -374
-174 -65 -31 -122 -56 -127 -56 -5 0 -9 -3 -9 -7 0 -9 78 -43 97 -43 11 0 63
23 213 93 41 19 170 79 285 132 116 54 242 112 280 130 39 18 169 79 290 135
242 112 287 133 420 196 l90 42 -45 21 c-25 11 -49 21 -55 20 -5 0 -95 -39
-200 -88z"/>
<path d="M3820 4152 c-8 -3 -73 -33 -145 -67 -71 -33 -246 -115 -388 -180
l-259 -120 52 -23 51 -24 167 77 c92 43 218 102 281 131 62 30 115 54 117 54
2 0 41 18 85 40 45 22 86 40 93 40 6 0 22 9 35 19 17 13 20 19 10 24 -8 3 -30
12 -49 20 -19 8 -42 12 -50 9z"/>
<path d="M4070 3995 c-14 -8 -128 -63 -255 -121 -126 -58 -263 -121 -304 -141
-40 -19 -103 -49 -140 -65 l-66 -31 51 -23 52 -24 147 70 c81 38 148 70 150
70 2 0 93 42 202 93 109 51 222 104 252 117 l53 25 -48 22 c-58 27 -61 27 -94
8z"/>
<path d="M2318 3770 c-112 -28 -154 -62 -162 -128 -6 -46 44 -117 120 -168 60
-40 185 -98 234 -108 150 -30 198 -37 276 -37 186 0 304 59 304 152 0 56 -77
138 -180 193 -176 93 -438 136 -592 96z"/>
</g>
</svg>
